<?xml version="1.0" encoding="utf-8"?>
<!-- Generator: Adobe Illustrator 22.1.0, SVG Export Plug-In . SVG Version: 6.00 Build 0)  -->
<svg version="1.1" id="Layer_1" xmlns="http://www.w3.org/2000/svg" xmlns:xlink="http://www.w3.org/1999/xlink" x="0px" y="0px"
	 viewBox="0 0 63 63" style="enable-background:new 0 0 63 63;" xml:space="preserve">
<style type="text/css">
	.st0{fill:#BABDC6;}
</style>
<path class="st0" d="M59.917,63H3.083C1.387,63,0,61.612,0,59.917V3.083C0,1.388,1.387,0,3.083,0h56.833C61.612,0,63,1.388,63,3.083
	v56.833C63,61.612,61.612,63,59.917,63z"/>
<rect x="33" y="14" width="21" height="6"/>
<rect x="35" y="44" width="17" height="6"/>
<path d="M9,26v12c0,0,5,0,8,0s5-2,5-6s-2-6-5-6C16,26,9,26,9,26z"/>
</svg>
