<?xml version="1.0" encoding="utf-8"?>
<!-- Generator: Adobe Illustrator 22.1.0, SVG Export Plug-In . SVG Version: 6.00 Build 0)  -->
<svg version="1.1" xmlns="http://www.w3.org/2000/svg" xmlns:xlink="http://www.w3.org/1999/xlink" x="0px" y="0px"
	 viewBox="0 0 275 92" style="enable-background:new 0 0 275 92;" xml:space="preserve">
<style type="text/css">
	.st0{fill:#303030;}
	.st1{fill:#F7F7F7;}
	.st2{fill:#BABDC6;}
	.st3{fill:#FFFFFF;}
</style>
<g id="Layer_1">
	<polygon class="st0" points="0,37 22,9 80,0 80,2 196,2 196,0 253,8 275,37 275,67 262,92 13,92 0,68 	"/>
</g>
<g id="Layer_3">
	<path class="st1" d="M210.833,87H63.167C61.425,87,60,85.575,60,83.833V19.167C60,17.425,61.425,16,63.167,16h147.667
		c1.742,0,3.167,1.425,3.167,3.167v64.667C214,85.575,212.575,87,210.833,87z"/>
</g>
<g id="Layer_2">
	<path class="st2" d="M204.917,84h-56.833c-1.696,0-3.083-1.387-3.083-3.083V24.083c0-1.696,1.387-3.083,3.083-3.083h56.833
		c1.696,0,3.083,1.388,3.083,3.083v56.833C208,82.613,206.613,84,204.917,84z"/>
	<path class="st2" d="M126.917,84H70.083C68.387,84,67,82.613,67,80.917V24.083C67,22.388,68.387,21,70.083,21h56.833
		c1.696,0,3.083,1.388,3.083,3.083v56.833C130,82.613,128.612,84,126.917,84z"/>
</g>
<g id="Layer_4">
	<rect x="101" y="34" width="21" height="6"/>
	<rect x="103" y="64" width="17" height="6"/>
	<path d="M77,46v12c0,0,5,0,8,0s5-2,5-6s-2-6-5-6C84,46,77,46,77,46z"/>
</g>
<g id="Layer_5">
	<rect x="154" y="36" transform="matrix(6.123234e-17 -1 1 6.123234e-17 125.5 203.5)" width="21" height="6"/>
	<rect x="186" y="36" transform="matrix(6.123234e-17 -1 1 6.123234e-17 155.5 233.5)" width="17" height="6"/>
	<path d="M173.5,73.5h12c0,0,0-5,0-8s-2-5-6-5s-6,2-6,5C173.5,66.5,173.5,73.5,173.5,73.5z"/>
</g>
<g id="Text">
	<g>
		<path class="st3" d="M220.128,66.09c0-0.387,0.075-0.652,0.228-0.796c0.15-0.144,0.446-0.215,0.886-0.215h2.49
			c0.437,0,0.729,0.071,0.882,0.215c0.15,0.144,0.227,0.409,0.227,0.796v0.322c0,0.254-0.041,0.451-0.122,0.591
			s-0.254,0.293-0.518,0.459l-3.34,2.07h3.389v-0.981l0.82,0.269v0.41c0,0.388-0.077,0.652-0.229,0.796s-0.449,0.215-0.889,0.215
			h-4.063v-0.322c0-0.237,0.047-0.419,0.139-0.545c0.094-0.125,0.247-0.256,0.462-0.393l3.501-2.202v-1.006h-3.042v1.206l-0.82-0.22
			V66.09z"/>
	</g>
	<g>
		<path class="st3" d="M51.511,70.24v-4.352h-1.123v-0.518l1.914-0.332v5.201H51.511z"/>
	</g>
	<g>
		<path class="st3" d="M116.304,7.805h-3.221v3.365h3.221v-1.164l0.778,0.162v0.55c0,0.428-0.075,0.718-0.224,0.87
			s-0.435,0.229-0.857,0.229h-2.602c-0.422,0-0.709-0.077-0.861-0.23c-0.152-0.154-0.229-0.443-0.229-0.868V8.27
			c0-0.424,0.076-0.714,0.229-0.867c0.152-0.154,0.439-0.23,0.861-0.23H116c0.422,0,0.708,0.076,0.857,0.229
			s0.224,0.442,0.224,0.869v0.439l-0.778,0.146V7.805z"/>
		<path class="st3" d="M117.259,8.27c0-0.422,0.075-0.71,0.227-0.865c0.15-0.155,0.438-0.232,0.863-0.232h3.212
			c0.419,0,0.704,0.076,0.855,0.23c0.15,0.153,0.226,0.443,0.226,0.867v2.448c0,0.428-0.076,0.718-0.226,0.87
			c-0.151,0.152-0.436,0.229-0.855,0.229h-3.212c-0.425,0-0.713-0.077-0.863-0.232c-0.151-0.155-0.227-0.444-0.227-0.866V8.27z
			 M118.033,11.17h3.845V7.805h-3.845V11.17z"/>
		<path class="st3" d="M123.198,11.816V7.172h0.488l3.476,3.106c0.079,0.07,0.163,0.155,0.253,0.255
			c0.089,0.1,0.181,0.21,0.274,0.33c-0.023-0.15-0.041-0.306-0.053-0.469c-0.012-0.162-0.018-0.387-0.018-0.674V7.172h0.712v4.645
			h-0.435l-3.568-3.23c-0.018-0.014-0.044-0.037-0.079-0.07c-0.176-0.158-0.306-0.309-0.391-0.452
			c0.018,0.141,0.031,0.291,0.04,0.45c0.009,0.16,0.013,0.349,0.013,0.564v2.738H123.198z"/>
		<path class="st3" d="M130.741,7.805v4.012h-0.773V7.805h-2.123V7.172h5.027v0.633H130.741z"/>
		<path class="st3" d="M132.377,11.816V7.172h3.744c0.349,0,0.6,0.07,0.754,0.213c0.153,0.142,0.23,0.371,0.23,0.688v1.037
			c0,0.313-0.077,0.541-0.23,0.684c-0.154,0.142-0.405,0.213-0.754,0.213h-0.682l2.123,1.811h-1.151l-1.89-1.811h-1.367v1.811
			H132.377z M135.818,7.773h-2.664v1.631h2.664c0.193,0,0.324-0.035,0.395-0.105s0.105-0.193,0.105-0.369V8.252
			c0-0.176-0.035-0.299-0.107-0.371C136.139,7.81,136.008,7.773,135.818,7.773z"/>
		<path class="st3" d="M137.375,8.27c0-0.422,0.076-0.71,0.227-0.865s0.439-0.232,0.863-0.232h3.213c0.419,0,0.703,0.076,0.855,0.23
			c0.15,0.153,0.226,0.443,0.226,0.867v2.448c0,0.428-0.075,0.718-0.226,0.87c-0.152,0.152-0.437,0.229-0.855,0.229h-3.213
			c-0.424,0-0.713-0.077-0.863-0.232s-0.227-0.444-0.227-0.866V8.27z M138.148,11.17h3.846V7.805h-3.846V11.17z"/>
		<path class="st3" d="M143.314,11.816V7.172h0.777v3.998h3.516v0.646H143.314z"/>
		<path class="st3" d="M147.389,11.816V7.172h0.778v3.998h3.516v0.646H147.389z"/>
		<path class="st3" d="M151.465,11.816V7.172h4.473v0.623h-3.695v1.293h2.259v0.615h-2.259v1.477h3.73v0.637H151.465z"/>
		<path class="st3" d="M158.576,7.172c0.428,0,0.783,0.028,1.065,0.085c0.283,0.058,0.522,0.149,0.719,0.274
			c0.299,0.197,0.534,0.467,0.705,0.809c0.172,0.344,0.257,0.719,0.257,1.125c0,0.435-0.084,0.824-0.252,1.172
			c-0.169,0.347-0.405,0.62-0.71,0.819c-0.19,0.123-0.428,0.214-0.712,0.272s-0.642,0.088-1.072,0.088h-2.558V7.172H158.576z
			 M158.467,7.805h-1.67v3.365h1.67c0.752,0,1.284-0.131,1.595-0.395s0.466-0.7,0.466-1.311c0-0.588-0.158-1.013-0.475-1.271
			C159.736,7.934,159.207,7.805,158.467,7.805z"/>
	</g>
	<g>
		<path class="st3" d="M216.78,33.604l2.429-4.387h0.796l2.472,4.387h-0.817l-0.568-1.079h-3.01l-0.568,1.079H216.78z
			 M218.393,31.964h2.396l-1.2-2.245L218.393,31.964z"/>
		<path class="st3" d="M222.407,33.604v-4.387h0.745v3.776h3.368v0.61H222.407z"/>
		<path class="st3" d="M226.526,33.604v-4.387h0.745v3.776h3.368v0.61H226.526z"/>
		<path class="st3" d="M234.019,30.254c0-0.398,0.072-0.671,0.217-0.817s0.42-0.22,0.827-0.22h3.077
			c0.401,0,0.674,0.072,0.818,0.218c0.145,0.145,0.217,0.418,0.217,0.819v2.312c0,0.404-0.072,0.678-0.217,0.822
			s-0.417,0.216-0.818,0.216h-3.077c-0.407,0-0.683-0.073-0.827-0.22c-0.145-0.147-0.217-0.419-0.217-0.818V30.254z M234.759,32.994
			h3.684v-3.179h-3.684V32.994z"/>
		<path class="st3" d="M240.668,29.217v3.776h3.241v-3.776h0.732v3.349c0,0.404-0.072,0.678-0.217,0.822s-0.417,0.216-0.818,0.216
			h-2.64c-0.404,0-0.679-0.073-0.825-0.22c-0.146-0.147-0.219-0.419-0.219-0.818v-3.349H240.668z"/>
		<path class="st3" d="M247.175,29.815v3.789h-0.741v-3.789H244.4v-0.598h4.815v0.598H247.175z"/>
		<path class="st3" d="M248.957,33.604v-4.387h3.587c0.334,0,0.574,0.067,0.722,0.201s0.221,0.351,0.221,0.649v0.979
			c0,0.296-0.073,0.511-0.221,0.646s-0.388,0.201-0.722,0.201h-2.842v1.71H248.957z M252.253,29.786h-2.551v1.531h2.551
			c0.183,0,0.309-0.034,0.377-0.104c0.069-0.069,0.104-0.188,0.104-0.357v-0.61c0-0.169-0.034-0.288-0.104-0.357
			C252.562,29.82,252.436,29.786,252.253,29.786z"/>
		<path class="st3" d="M254.537,29.217v3.776h3.241v-3.776h0.732v3.349c0,0.404-0.072,0.678-0.217,0.822s-0.417,0.216-0.818,0.216
			h-2.64c-0.404,0-0.679-0.073-0.825-0.22c-0.146-0.147-0.219-0.419-0.219-0.818v-3.349H254.537z"/>
		<path class="st3" d="M261.044,29.815v3.789h-0.741v-3.789h-2.033v-0.598h4.815v0.598H261.044z"/>
		<path class="st3" d="M266.623,29.815h-3.148v1.224h2.804c0.396,0,0.666,0.072,0.813,0.216c0.146,0.144,0.219,0.417,0.219,0.818
			v0.494c0,0.404-0.071,0.678-0.215,0.822c-0.143,0.144-0.415,0.216-0.816,0.216h-2.598c-0.404,0-0.679-0.073-0.825-0.218
			c-0.146-0.146-0.219-0.418-0.219-0.82v-0.121l0.69-0.157v0.705h3.313v-1.319h-2.796c-0.403,0-0.678-0.073-0.82-0.218
			c-0.144-0.145-0.215-0.418-0.215-0.82v-0.382c0-0.401,0.071-0.674,0.215-0.819c0.143-0.146,0.417-0.218,0.82-0.218h2.37
			c0.396,0,0.669,0.071,0.819,0.213c0.149,0.143,0.225,0.392,0.225,0.75v0.091l-0.636,0.179V29.815z"/>
	</g>
	<g>
		<path class="st3" d="M215.459,38.604v-3.698h-0.985v-0.439l1.68-0.282v4.42H215.459z"/>
		<path class="st3" d="M218.739,35.076c0-0.329,0.066-0.555,0.199-0.676c0.133-0.122,0.393-0.183,0.778-0.183h2.185
			c0.383,0,0.641,0.061,0.773,0.183c0.133,0.122,0.199,0.347,0.199,0.676v0.274c0,0.216-0.036,0.383-0.107,0.502
			c-0.071,0.119-0.223,0.249-0.454,0.391l-2.931,1.76h2.974v-0.834l0.72,0.228v0.349c0,0.33-0.067,0.555-0.201,0.677
			c-0.135,0.122-0.395,0.183-0.78,0.183h-3.564V38.33c0-0.202,0.041-0.356,0.122-0.463c0.082-0.106,0.217-0.218,0.405-0.334
			l3.072-1.872v-0.855h-2.67v1.025l-0.72-0.187V35.076z"/>
		<path class="st3" d="M223.305,35.254c0-0.401,0.067-0.674,0.203-0.819c0.136-0.146,0.392-0.218,0.769-0.218h2.88
			c0.374,0,0.629,0.072,0.767,0.218c0.137,0.145,0.205,0.418,0.205,0.819v2.312c0,0.401-0.068,0.674-0.205,0.82
			c-0.138,0.145-0.393,0.218-0.767,0.218h-2.88c-0.377,0-0.633-0.072-0.769-0.216s-0.203-0.418-0.203-0.822V35.254z M224.032,38.002
			h3.368v-3.196h-3.368V38.002z"/>
		<path class="st3" d="M230.227,38.604l-2.473-4.387h0.814l2.001,3.656l1.91-3.656h0.75l-2.369,4.387H230.227z"/>
		<path class="st3" d="M236.808,38.604v-3.698h-0.985v-0.439l1.68-0.282v4.42H236.808z"/>
		<path class="st3" d="M240.088,35.076c0-0.329,0.066-0.555,0.199-0.676c0.133-0.122,0.393-0.183,0.778-0.183h2.185
			c0.383,0,0.641,0.061,0.773,0.183c0.133,0.122,0.199,0.347,0.199,0.676v0.274c0,0.216-0.036,0.383-0.107,0.502
			c-0.071,0.119-0.223,0.249-0.454,0.391l-2.931,1.76h2.974v-0.834l0.72,0.228v0.349c0,0.33-0.067,0.555-0.201,0.677
			c-0.135,0.122-0.395,0.183-0.78,0.183h-3.564V38.33c0-0.202,0.041-0.356,0.122-0.463c0.082-0.106,0.217-0.218,0.405-0.334
			l3.072-1.872v-0.855h-2.67v1.025l-0.72-0.187V35.076z"/>
		<path class="st3" d="M244.075,38.604l2.473-4.387h0.81l2.515,4.387h-0.831l-0.578-1.079h-3.063l-0.578,1.079H244.075z
			 M245.717,36.964h2.438l-1.221-2.245L245.717,36.964z"/>
		<path class="st3" d="M253.305,34.815v3.789h-0.754v-3.789h-2.069v-0.598h4.901v0.598H253.305z"/>
		<path class="st3" d="M255.06,35.254c0-0.398,0.073-0.671,0.221-0.817c0.146-0.146,0.428-0.22,0.842-0.22h3.132
			c0.408,0,0.686,0.072,0.833,0.218c0.147,0.145,0.221,0.418,0.221,0.819v2.312c0,0.404-0.073,0.678-0.221,0.822
			s-0.425,0.216-0.833,0.216h-3.132c-0.414,0-0.695-0.073-0.842-0.22c-0.147-0.147-0.221-0.419-0.221-0.818V35.254z M255.813,37.994
			h3.748v-3.179h-3.748V37.994z"/>
		<path class="st3" d="M262.824,34.815v3.789h-0.754v-3.789h-2.069v-0.598h4.901v0.598H262.824z"/>
		<path class="st3" d="M263.117,38.604l2.473-4.387h0.81l2.515,4.387h-0.831l-0.578-1.079h-3.063l-0.578,1.079H263.117z
			 M264.759,36.964h2.438l-1.221-2.245L264.759,36.964z"/>
		<path class="st3" d="M268.844,38.604v-4.387h0.759v3.776h3.427v0.61H268.844z"/>
	</g>
</g>
</svg>
